<svg width="50" height="50" viewBox="0 0 50 50" fill="none" xmlns="http://www.w3.org/2000/svg">
<path d="M25 4.6875C13.8 4.6875 4.6875 13.8 4.6875 25C4.6875 36.2 13.8 45.3125 25 45.3125C36.2 45.3125 45.3125 36.2 45.3125 25C45.3125 13.8 36.2 4.6875 25 4.6875ZM23.2422 7.91094C23.3047 7.90313 23.3734 7.91563 23.4375 7.91094V9.375H26.5625V7.90937C30.5604 8.26703 34.3056 10.0179 37.1439 12.8561C39.9821 15.6944 41.733 19.4396 42.0906 23.4375H40.625V26.5625H42.0906C41.733 30.5604 39.9821 34.3056 37.1439 37.1439C34.3056 39.9821 30.5604 41.733 26.5625 42.0906V40.625H23.4375V42.0906C19.4396 41.733 15.6944 39.9821 12.8561 37.1439C10.0179 34.3056 8.26703 30.5604 7.90937 26.5625H9.375V23.4375H7.90937C8.64687 15.2453 15.0766 8.73437 23.2422 7.90937V7.91094ZM34.5234 15.4781L21.2422 21.2406L15.4766 34.5219L28.7578 28.7594L34.5234 15.4781ZM25 22.6562C26.25 22.6562 27.3438 23.75 27.3438 25C27.3438 26.25 26.25 27.3438 25 27.3438C23.75 27.3438 22.6562 26.25 22.6562 25C22.6562 23.75 23.75 22.6562 25 22.6562Z" fill="white"/>
</svg>
