<svg width="50" height="45" viewBox="0 0 50 45" fill="none" xmlns="http://www.w3.org/2000/svg">
<g clip-path="url(#clip0_2_2)">
<path d="M42.3259 21.3188V20.2613C42.324 17.2583 41.1449 14.3789 39.0477 12.2555C36.9505 10.1321 34.1066 8.93827 31.1407 8.93628H11.1852C8.21929 8.93827 5.37544 10.1321 3.27823 12.2555C1.18103 14.3789 0.00196222 17.2583 0 20.2613L0 21.3188C0.00196222 24.3217 1.18103 27.2011 3.27823 29.3246C5.37544 31.448 8.21929 32.6418 11.1852 32.6438H31.1407C34.1066 32.6418 36.9505 31.448 39.0477 29.3246C41.1449 27.2011 42.324 24.3217 42.3259 21.3188ZM12.0333 30.1275C9.58745 30.1275 7.24174 29.1438 5.51224 27.3926C3.78274 25.6415 2.81111 23.2665 2.81111 20.79C2.81111 18.3136 3.78274 15.9385 5.51224 14.1874C7.24174 12.4363 9.58745 11.4525 12.0333 11.4525H30.2944C32.7403 11.4525 35.086 12.4363 36.8155 14.1874C38.545 15.9385 39.5167 18.3136 39.5167 20.79C39.5167 23.2665 38.545 25.6415 36.8155 27.3926C35.086 29.1438 32.7403 30.1275 30.2944 30.1275C28.1103 29.8413 26.1205 28.7096 24.7426 26.97L24.7296 26.9532C24.3578 26.5552 23.9096 26.2383 23.4125 26.0219C22.9155 25.8056 22.38 25.6943 21.8389 25.695C20.6667 25.695 19.6148 26.2069 18.8852 27.0225L18.8815 27.0263C18.0224 28.0034 16.9686 28.7851 15.7895 29.32C14.6104 29.8549 13.3328 30.1307 12.0407 30.1294H12.0296L12.0333 30.1275Z" fill="white"/>
<path d="M48.3574 -3.41793e-05H44.8703C44.575 0.000954454 44.292 0.120193 44.0831 0.331661C43.8743 0.543129 43.7565 0.829657 43.7555 1.12872V7.12872C43.7555 7.71559 44.2018 8.19747 44.7685 8.24434H44.7722V29.8931C44.7697 32.0993 43.9031 34.2144 42.3623 35.7744C40.8216 37.3344 38.7326 38.2119 36.5537 38.2143H25.6796C25.3136 37.3115 24.691 36.5391 23.8909 35.995C23.0907 35.4509 22.149 35.1596 21.1851 35.1581C19.8974 35.1581 18.6623 35.6761 17.7517 36.598C16.8412 37.52 16.3296 38.7705 16.3296 40.0743C16.3296 41.3782 16.8412 42.6287 17.7517 43.5507C18.6623 44.4726 19.8974 44.9906 21.1851 44.9906H21.1981C22.1556 44.9905 23.0915 44.7027 23.8873 44.1636C24.6831 43.6246 25.303 42.8585 25.6685 41.9625L25.6796 41.9306H36.5537C39.71 41.9276 42.7362 40.6569 44.9683 38.3973C47.2003 36.1377 48.4558 33.0739 48.4592 29.8781V8.24622C48.7335 8.22052 48.9884 8.0921 49.174 7.8861C49.3597 7.68009 49.4627 7.41134 49.4629 7.13247V1.11747C49.4629 0.82074 49.3468 0.536113 49.1399 0.325945C48.933 0.115778 48.6523 -0.00279179 48.3592 -0.00378418L48.3574 -3.41793e-05Z" fill="white"/>
</g>
<defs>
<clipPath id="clip0_2_2">
<rect width="50" height="45" fill="white"/>
</clipPath>
</defs>
</svg>
