<svg width="97" height="97" viewBox="0 0 97 97" fill="none" xmlns="http://www.w3.org/2000/svg">
<path d="M30.3882 28.6681C30.3882 28.6681 32.3207 27.5465 33.4043 27.0615L50.2581 33.2604L77.5166 33.9955C77.5166 33.9955 79.5627 36.1174 80.1689 36.8449L85.1175 51.0463L89.1111 52.6453C89.1111 52.6453 90.0281 55.3886 90.2857 56.4268L89.4597 62.9743L49.9474 72.7728L18.2178 64.99L18.3163 45.4839L28.0163 32.8512L30.3882 28.6681Z" fill="#2F2F2F"/>
<path d="M55.4263 45.1429C55.3505 48.9774 55.1384 59.996 55.2141 66.392C56.4797 66.4223 57.8665 66.3541 59.3973 66.1949C61.4434 65.9903 63.5804 65.5811 65.6416 65.187L66.9527 64.937C69.067 64.5353 71.0221 64.0352 72.9318 63.4062C75.8797 62.4362 79.1383 61.1858 82.0786 59.3746C79.9188 51.8495 76.0464 46.2038 74.8036 44.5139C66.4677 43.8546 58.4803 44.7337 55.4263 45.1429ZM77.5848 42.8316C79.0625 44.8549 82.6091 50.2051 84.8673 57.3967C86.5194 56.0251 87.9441 54.3882 89.0353 52.4558C88.0198 49.6291 86.7922 46.8859 85.322 44.2714C83.8439 41.6374 82.1212 39.1483 80.1765 36.8373C79.4566 39.1941 78.3123 41.4978 77.5848 42.8316ZM34.253 32.351C37.4813 33.5863 48.5378 37.9816 54.2517 42.0359C56.7146 41.6721 65.384 40.5506 74.743 41.2629C75.9555 39.0274 77.2286 36.0264 77.509 33.9879C77.3953 33.8742 77.2968 33.753 77.1831 33.6469C73.2955 29.9942 68.3698 27.986 63.3985 26.3037C56.457 23.9545 48.9016 23.1284 41.6645 24.4243C38.7999 24.9396 36.0339 25.8263 33.4043 27.0615L34.253 32.351Z" fill="#757F3F"/>
<path d="M90.263 56.4495C88.7549 58.3819 86.9286 59.9885 84.9735 61.3222C84.9356 61.3526 84.8901 61.3753 84.8598 61.4056C81.2678 63.8306 77.2589 65.3917 73.9473 66.4754C71.9012 67.1498 69.8172 67.6879 67.5589 68.1122L66.2479 68.3623C64.1109 68.7715 61.9132 69.1959 59.7231 69.4233C58.4349 69.5521 57.1011 69.6582 55.7598 69.6582C51.7585 69.6582 47.7421 68.7185 44.8094 64.7097C43.6272 63.0804 42.3086 61.7087 40.9067 60.6326L40.3231 60.1779C39.4365 59.4732 37.7769 58.1546 36.9206 58.1319L37.0039 54.896C38.9439 54.949 40.9067 56.5026 42.3389 57.6393L42.8694 58.0561C44.5138 59.314 46.0522 60.9054 47.4239 62.7924C48.6591 64.4823 50.1671 65.4447 51.9783 65.9525C51.9177 59.117 52.1374 47.7498 52.2056 44.5519C46.6585 40.6643 35.5035 36.2765 32.8435 35.2611C31.7978 35.9052 29.0999 38.1483 25.9247 41.3842C25.6064 41.7101 25.1821 41.8692 24.7653 41.8692C24.356 41.8692 23.9468 41.7176 23.6361 41.4069C22.9996 40.7855 22.9844 39.7625 23.6134 39.1183C25.6216 37.0798 28.8044 33.9955 31.0324 32.6163L30.3882 28.6605C24.9623 31.904 19.6046 36.9358 16.3838 42.7861C13.1556 48.6289 12.0643 55.2749 15.141 61.7087C16.1489 63.7927 18.1723 67.2938 20.2032 68.5063C21.9992 69.5824 23.9013 70.4993 25.8413 71.3026C27.5616 72.015 29.0166 72.9092 30.7823 73.4245C32.3585 73.8944 33.9878 74.4021 35.5868 74.7583C37.201 75.122 38.8757 75.2357 40.4974 75.5388C41.9373 75.804 43.3923 76.0465 44.8473 76.0693C52.3117 76.1678 59.8596 76.5619 67.1876 74.7886C71.6435 73.7125 76.0616 72.3711 80.2523 70.5221C82.3742 69.5976 84.443 68.5366 86.3906 67.2938C87.9744 66.2935 90.0584 65.3083 90.8844 63.5199C91.7559 61.6329 91.0132 59.3519 90.551 57.4422C90.4676 57.124 90.3539 56.7829 90.263 56.4495Z" fill="#757F3F"/>
<path d="M22.6965 74.5461C21.9539 74.1065 20.8929 73.955 19.4531 73.7503C17.5585 73.4851 15.4973 72.9546 13.6028 73.2957C11.9735 73.5912 11.7992 74.008 11.2687 75.5161C10.4427 77.888 8.04042 84.9963 9.90464 87.2394C10.3669 87.7926 11.443 87.9896 12.1023 88.1867C14.0044 88.7626 16.0278 88.8914 18.0284 89.0279C19.7335 89.1415 21.4158 88.8308 23.0451 88.3761C24.2652 88.0351 24.8032 87.7471 24.9017 86.3982C25.1215 83.5186 24.4774 80.6768 24.2197 77.8198C24.0378 75.9707 23.5832 75.0614 22.6965 74.5461ZM88.4974 66.0055C87.7926 66.4753 87.0424 66.8921 86.3831 67.3089C84.4355 68.5442 82.3667 69.6051 80.2448 70.5372C76.0541 72.3863 71.636 73.7276 67.1801 74.8037C59.8521 76.577 52.3042 76.1829 44.8398 76.0844C43.3772 76.0617 41.9222 75.8192 40.49 75.5539C40.0883 75.4782 39.6942 75.4175 39.2926 75.3569L39.6867 79.5628C39.6867 79.5628 41.1114 79.6689 43.6576 79.5097C43.165 84.3825 43.0059 89.6417 44.2487 90.642C44.8095 91.0967 45.9992 91.18 46.7267 91.3013C48.8638 91.6575 51.0766 91.6044 53.2742 91.5665C55.146 91.5362 56.9496 91.127 58.6775 90.5965C59.9733 90.2025 60.5341 89.9145 60.5114 88.7247C60.4886 87.2015 59.9733 82.3061 59.4504 78.1154C64.255 77.4864 70.1735 76.2966 75.5236 74.0762C75.5994 75.7586 75.6676 77.1984 75.66 77.4939C75.6146 78.6534 75.5994 80.2372 76.6225 81.1314C79.4718 83.6398 86.5271 82.1772 89.8008 81.086C92.241 80.2827 91.4907 77.4409 91.0057 75.7813C90.7253 74.7886 89.5962 69.6203 88.4974 66.0055ZM96.2953 48.7122C95.0221 47.5149 92.9306 49.0608 91.7635 49.6822C90.7178 50.243 89.6796 50.7962 88.6186 51.3191C89.384 53.3273 90.0509 55.3734 90.551 57.465C90.7784 58.3971 91.0664 59.4201 91.2103 60.4432C91.2482 60.3977 91.2861 60.3522 91.324 60.3143C91.7105 59.8748 92.0591 59.4277 92.4001 58.9503C93.7263 57.0709 94.7342 54.9945 95.8178 52.9787C96.3407 51.9708 97.3032 49.6671 96.2953 48.7122Z" fill="#BDCF46"/>
<path d="M39.6943 79.5628C38.8379 79.5931 37.974 79.5855 37.0874 79.5855C30.7748 79.5855 24.7578 79.4188 18.5437 78.0093C9.10896 75.8798 1.75818 70.2341 0.477481 60.14C-0.310644 53.9184 0.947324 46.5449 5.75186 42.1875C10.2608 38.0953 18.3694 36.9661 23.9242 38.8531C30.3959 41.0659 35.1095 46.3857 37.7997 52.524C39.8686 57.2528 41.2705 61.4965 42.142 66.5966C42.2708 67.3772 43.7031 79.1763 42.0283 79.3961C41.2554 79.487 40.4748 79.54 39.6943 79.5628Z" fill="#BDCF46"/>
<path d="M22.9238 48.0984C24.788 47.7649 26.6144 49.2048 27.0009 51.3267C27.3873 53.441 26.19 55.4416 24.3258 55.7826C22.4691 56.116 20.6428 54.6762 20.2488 52.5619C19.8623 50.44 21.0596 48.447 22.9238 48.0984ZM5.86547 50.9023C6.39594 48.8183 8.32836 47.5073 10.1547 47.9771C11.9886 48.447 13.042 50.5234 12.5115 52.6074C11.9734 54.6914 10.0562 56.0024 8.22227 55.5325C6.39594 55.0551 5.335 52.9863 5.86547 50.9023ZM18.0359 60.087C17.172 60.5568 16.4294 61.057 15.4215 60.6857C14.838 60.4735 14.2848 60.3067 13.777 59.9278C13.4133 59.6626 13.0041 59.4428 12.6403 59.1776C12.4509 59.0412 12.269 58.8972 12.0795 58.7608C11.8673 58.6017 11.7916 58.5335 11.5188 58.4956C11.299 58.4728 10.867 58.4577 10.7003 58.6396C9.98797 59.4353 10.9883 60.6174 11.5263 61.1555C12.3296 61.936 13.4739 62.8227 14.5273 63.2774C15.5579 63.7245 16.5809 64.2625 17.6798 63.7169C18.8847 63.1107 19.9305 62.2316 20.9914 61.4207C21.6886 60.8903 23.2497 59.9582 22.9769 58.9199C22.7874 58.1621 21.9084 58.3213 21.3324 58.5032C20.6049 58.7229 19.9532 59.0942 19.2788 59.4353C18.862 59.6399 18.4527 59.8672 18.0359 60.087Z" fill="#2F2F2F"/>
</svg>
