<svg width="59" height="59" viewBox="0 0 59 59" fill="none" xmlns="http://www.w3.org/2000/svg">
<path d="M49.1706 7.35543C48.3409 7.67578 47.5342 8.41098 46.8659 9.25219C47.396 11.5108 46.3358 13.9549 45.4946 15.7065C47.7301 15.6373 51.602 16.4324 53.3766 15.4414C55.4969 14.2545 57.4098 10.1164 56.8106 8.09985C54.6442 7.55248 51.0143 6.73662 49.1706 7.35543ZM31.9661 8.34184L31.7702 9.79379C33.1876 10.128 34.4667 10.6465 35.6536 11.4647C35.8379 10.1741 36.1721 9.04477 37.071 8.31879C35.377 8.20356 33.6024 8.21508 31.9661 8.34184ZM54.2409 8.57231C52.6161 9.49418 51.0258 10.151 50.2768 11.1536C49.5393 10.5082 49.0669 9.77074 49.2858 8.74516C50.9106 8.04223 52.6506 8.20356 54.2409 8.57231ZM29.8458 8.57231C28.6012 8.73363 27.3682 8.9641 26.1352 9.27524C27.3797 9.28676 28.6588 9.33285 29.719 9.44809L29.8458 8.57231ZM38.2809 10.0243C37.3245 11.9844 37.9237 13.3211 38.6958 14.8537C39.7098 13.1252 40.5971 11.2803 41.3461 9.3559C40.309 9.14848 38.9723 9.29828 38.2809 10.0243ZM43.5932 9.30981C36.8751 27.6793 18.3108 38.1887 2.07312 36.9557C2.2114 41.1733 9.03789 39.3871 11.5166 38.9262C17.5272 37.7738 25.2825 35.1235 30.8368 30.3297C35.2963 26.4924 39.3987 21.9291 42.1528 17.5156C43.0055 15.6258 45.4831 12.1112 44.9184 9.9436C44.734 9.42504 44.1002 9.42504 43.5932 9.30981ZM22.6436 11.5465C23.8766 12.2264 24.9368 13.0676 25.9508 13.8742C26.3426 13.033 26.9418 12.1918 27.8292 11.384C26.1352 11.3149 24.1993 11.4071 22.6436 11.5465ZM30.8944 11.7194C28.7626 12.9408 27.9559 14.0471 27.6217 15.211C28.7856 16.3633 30.0532 17.9651 31.0903 19.3824C30.9866 16.6514 33.3719 14.3006 35.3309 13.8512C34.0518 12.6528 32.692 12.0881 30.8944 11.7194ZM19.2096 12.4108C19.0483 13.8858 18.887 15.3723 19.0944 16.7666C20.3159 15.5567 22.0674 14.8653 23.5655 14.6694C22.2172 13.6553 20.8805 12.791 19.2096 12.4108ZM16.9971 13.5862C15.5913 15.2571 14.3813 17.2276 13.3327 19.1405C14.4044 18.6449 15.6719 18.2877 17.2852 18.2071C16.8358 16.6168 16.8704 15.0381 16.9971 13.5862ZM34.1786 16.5592C32.692 17.919 33.1876 20.1776 33.5678 21.7908C35.2848 19.9356 36.8405 17.8959 38.1887 15.7065C36.852 15.7295 35.2042 15.7641 34.1786 16.5592ZM19.5899 19.4862C19.5323 21.5949 20.1085 24.1301 20.8229 26.1467C22.5975 22.344 25.6051 20.3504 29.4424 20.6615C28.4514 19.3248 27.276 17.8383 26.285 16.8127C23.4502 16.5822 21.0418 16.951 19.5899 19.4862ZM12.1803 16.9395C10.892 18.1264 9.73736 19.3709 8.71062 20.65C9.14621 20.6961 9.58064 20.8229 10.0012 21.0188C10.6431 19.7627 11.3668 18.3569 12.1803 16.9395ZM17.5157 20.2467C14.2891 20.3043 13.0446 21.5373 11.3668 23.0354C10.8056 25.3977 10.6062 27.7369 10.7756 30.0071C12.8141 27.4143 15.8793 25.9393 18.8639 26.8612C18.161 24.9022 17.5848 22.5283 17.5157 20.2467ZM25.1903 23.7153C23.5079 24.9022 22.3786 27.0801 22.0213 29.5692L21.86 30.6524C25.5129 28.7971 28.9469 26.3656 31.9891 23.4041C29.6383 22.4822 27.1838 22.3324 25.1903 23.7153ZM6.78621 23.3004C5.55666 25.1903 4.58292 27.1377 3.84427 29.0967C5.89544 28.5666 7.71384 29.7305 8.7982 31.1248C8.48476 28.4514 8.64494 25.6973 9.26029 22.9547C8.38451 22.4592 7.4707 22.8049 6.78621 23.3004ZM40.9774 22.9201C39.9633 24.2684 38.8801 25.5821 37.7393 26.8381C38.546 28.8317 38.4422 31.1594 37.5665 32.9225C36.4833 35.1004 34.6856 36.8059 33.3143 39.9287C32.7381 41.3 32.0122 47.1309 33.7292 47.2231C39.1682 44.1002 45.2872 36.8405 45.5983 30.8137C44.8378 27.5756 43.0286 25.2248 40.9774 22.9201ZM14.8653 29.1313C13.2174 29.9494 11.6733 31.7701 10.8644 34.3975C14.3122 33.7752 17.7692 32.6459 21.0764 31.0442C19.1751 29.0621 17.193 27.9674 14.8653 29.1313ZM4.79265 30.9865C2.78296 31.4705 2.58707 33.1414 2.31511 34.8815C4.28908 35.0313 6.30568 34.9852 8.33496 34.7662C7.88554 33.0608 6.58224 30.9981 4.79265 30.9865ZM16.5938 39.8135C15.4876 40.1362 14.4044 40.4242 13.3442 40.6662C12.4223 42.3256 10.983 44.5957 10.7652 46.5201C10.8505 48.4791 11.3437 50.1961 11.9844 51.867C17.3198 48.0988 17.9536 44.3307 16.5938 39.8135Z" fill="white"/>
</svg>
